<?xml version="1.0" encoding="UTF-8"?>
<svg xmlns="http://www.w3.org/2000/svg" class="svg_pic" viewBox="0 0 1920 1080">
	<defs>
		<style>
			.cls-2 {
				fill: rgba(0, 0, 0, 0);
				stroke: #ffffff;
				stroke-miterlimit: 10;
				stroke-width: 5px;
			}

			.cls-1 {
				fill: rgba(0, 0, 0, 0);
			}
		</style>
	</defs>
	<g id="Livello_2" data-name="Livello 2">  Background 
		<rect class="cls-1" width="1920" height="1080"/>
	</g>

	<a href="./main_world.html">
		<g id="_Hangman_" data-name="&amp;lt;Hangman&amp;gt;" onmouseover="changeText('character','Hangman')" onmouseout="changeBack('character')">
			<path class="cls-2" d="M635,756.5c.07,1.09,1.47-.03,1-.5-.22-.22-1.02.15-1,.5Z"/>
			<path class="cls-2" d="M763,780c.75-2.07,2.23-3.93,3-6l8-11c5.37-5.89-1.09-11.6-1-18,.02-1.8.71-3.33,1-5,.16-.93-.16-2.07,0-3,.11-.64.89-1.41,1-2,.04-.22,1.03-.85,1.09-2.43.14-3.2-4.96-13.43-7.03-15.92-.89-1.07-1.98-.55-2.06-.64-.31-.33-.66-.71-1-1l-1.15-4.88-1.85-.12c-.29-.61-.22-1.53-1-3-.35-.65-.64-1.33-1-2-.28-.53-1.61-2.5-2-3-.29-.37-.69-.65-1-1-1.97-2.2-4.64-5.78-8-6-.25-.38-.8-.66-1-1-1.32-2.23-2.76-3.97-4-6-.03-.59-.1-1.2-.17-1.81-1.32-1.44-2.15-3.28-2.47-5.22-1.96-2.26-2.76-5.42-2.36-8.42-.16-1.2-.14-2.42.07-3.61-.29-.04-.63-.03-1.07.06.04-.66-.02-1.34,0-2,.04-1.34.11-2.72.18-4.11-.43-1.48-.54-3.06-.35-4.6-.02-.18-.05-.36-.07-.54-.82-2.02-1.01-4.32-.57-6.48-.12-.55-.18-1.1-.18-1.68-.06-.6-.06-1.2-.02-1.8-.06-.81-.03-1.63.09-2.43-.35-.44-.74-.78-1.07-1.36-.48-.85-1.37-2.44-2-3-1.85-1.66-5.66-3.58-8-5-3.61-2.19-8.85-4.01-12-6-.33-.21-.61-.74-1-1-.66-.44-2.86-1.88-3-2-.33-.28-.64-.68-1-1-.13-.11.2-1.27-.28-1.7-3.88-3.41-7.59-7.76-12.72-7.3-2.79.25-3.25-.32-5.56,1.94-.46.45-4.62,6.53-4.9,7.14-.57,1.23-.35,2.53-.53,2.92-.13.26.12.71,0,1-2.06.23-7.95,7.11-8,9-2.69,1.22-4.69,1.96-7,4-1.85,1.64-1.18,1.58-2,3-.48.83-1.65.27-2.06,3.43-1.61,12.59,1.31,28.6.06,41.57-.19,2.98,1.08,6.77,1,8-.2,3.08-6.16,9-7.88,11.64-1.02,1.57-.86,3.96-1.12,4.36-.26.39-1.87.98-2.51,1.94l-8.49,11.06c-.32-1.3-1.72-3.33-2-5-.57-3.42-.58-8.3-1-12-.64-5.69-1.68-12.42-2-18-.37-6.5-.9-14.82-1-21-.09-5.92-.19-14.25-.13-22.7.05-.59.07-1.3.13-2.3.2-3.14.3-8.79.24-13.61.18-3.92.42-7.49.76-10.39,1.02-8.68,2.93-6.14,7.97-9.54,1.51-1.02,2.02-2.24,3.03-3.46.22.08.66,0,1,0,.33,0,.79.08,1,0,.92-.35,1.82-.97,2-2,.8-4.52-2.12-3.86-5-3-1.27.38-1.71.48-3,1-.36.15-.67.85-1,1-.22.1-.51.86-1,1-.11-.47-.54-.95-1-1-1.29-.14-2.73.17-4,0l-1-1c-.1-1.31.15-2.7,0-4-.39-3.43,1.19-6.35-4-6-.48.03-3.03.77-4,1-1.25.3-2.78,1.74-4,2-1.15.24-2.75-.16-4,0-2.3-3.02-1.33-7.7-2-11-.78-3.85-4.09-12.71-8-13-1.46-.11-3.57-.29-4.56.98l.56,3.02c-6.1,1.29-3.61,7.73-3.99,12.5.13.49.55.55.99.5-.52.92-.91,1.94-1,3-.03.33.01.67,0,1-3.02-.56-1.94,1.53-2,3.45-.22,6.5.63,12.5,1,18.55.26,4.22.85,8.4,1.09,12.5.1,1.73-1.19,4.05-1,4.95.31,1.41,2.73,1.34,2.9,1.55.2.24-.22,2.43,1,3,0,.33,0,.67,0,1,0,.33-.03.67,0,1,.06.65-.1,1.39,0,2,.17,1.02-.08,1.75.51,2.97.32.66,1.17.73,1.49,1.03.31.29.61.9,1,1,.21.05.8.07,1,0,2.43-.84,1.65-2.2,2-4,.18-.9-.2-2.15,0-3,.15-.65.86-1.38,1-2,.47-2.09.68-3.92,1-6,.08-.51,1.28-1.2,1-3l-1-1h-1v-1c.55-.42,1.57-.6,2-1,.96-.9.75-.83,1-2,.06-.3-.01-.67,0-1h1c.93-.47,1.94-.92,3-1,2.23-.17,5.86-.28,8,0,.56.07,1.36.8,2,1,.02.67-.02,1.33,0,2,.05,2.33-.02,4.67,0,7,0,.67,0,1.33,0,2,0,2,.02,4,0,6-.03,3.4-1.8,7.25,1,10-.3.68-.69,1.32-1,2-.63,1.4-.67,1.32-1,3-.06.32.05.68,0,1-1.46,8.86-1.99,25.3-.47,33.96.09.53,1.46.92,1.47,1.04.57,3.66.85,9.18,1,13,0,.25-1.12,2.59-1,5,.44,8.69,1.26,21.67,3,30-4.26,4.52-4.52,6.63-3.99,13.28.13.58,1.41,1.39,1.99,1.72.24.14.71-.13,1,0-.05.57-.21,1.55.12,1.88.58.4,1.49-.04,1.88.12.85.34,1.61,1.39,3,1-.24.53-.09,4.85,0,6,.02.33-.05.68,0,1,.13.85.04,1.59,1,2-.59,1.92-1.56,4.1-2,6-.81,3.44-2.36,12.45,0,15,.16.17,1.7.94,2,1,.31.06.67-.03,1,0,1.64.16,3.35-.11,5,0,.95-.29,1.65-2.06,2-3,1.03-2.77-.03-3.3,0-4,.01-.33,0-.67,0-1,.03-1.32.04-2.68,0-4-.03-1,.05-2,0-3-.05-.99.06-2.01,0-3-.11-1.74-.92-3.09-1-4-.18-1.91,0-4.05,0-6v-2c.37-.3.82-.44,1-1,.34-.09.78.12,1,0,.92-.49,1.7-4.57,2-6,.13-.6-.12-1.39,0-2,.06-.32-.05-.68,0-1,.05-.32-.04-.67,0-1,.04-.33-.03-.67,0-1,.01-.11.9-.24,1-2,.04-.65.03-1.34,0-2-.03-.64.14-1.52,0-2,.37-.28.64-.72,1-1,1.58-1.21,1.89-1.9,3-3,4.6-4.55,7.16-7.8,11-13,3.75.68,4.12-3.04,6.51-4.99l1.49,3.99c.04,1.33-.03,2.67,0,4,.1,4.8-.97,22.54,1,25,.3.37.63.7,1,1,.04,5.02-.21,10,0,15,0,.1-.7.6-.66,1.3.2,3.02,1.31,10.68,3.66,12.7-.02.33.02.67,0,1-.19,2.73-.77,4.81-1,7-.07.65.08,1.35,0,2-.49-.1-.86-.11-1.16-.06.31,1.02.49,2.1.5,3.17.02,1.72-.35,3.42-1.16,4.85-.12.76-.17,1.49-.14,2.2.11.19.23.37.34.56.72,1.22,1.14,2.51,1.29,3.81.13,1.17.04,2.34-.25,3.47.48.35.99.68,1.59.99,1.41,6.83,1.37,14.11,1,21-.33.33-.66.68-1,1-5.21.82-17.32,4.77-20,9-1.47,2.31-.69,3.54,1,5,2.92,2.52,5.46,2.74,9.46,3.04,9.58.71,21.08.09,30.54-1.04,4.6-.55,9.34-1.73,14-2,1.26-1.26-4.06-15.36-6-17-.51-5.25.81-10.88,0-16,1.07-7.51,8.48-18.61,16-20,.57-.11,1.35,0,2,0,.33,0,.68-.03,1,0-.1.3.09.69,0,1-.15.53.1,1.36,0,2-.02.11-.64.22-.83.53l.83.47c.03.33-.04.67,0,1h-1l-1,1c.9,2.29,2.21,4.93,5,5,0,.33-.03.68,0,1,.53,5.08,1.21,9.05,1.05,14.55-.08,2.67-2.57,10.5.44,11.24.79-.08,1.87-.84,2.51-.79,1.73.13,3.35.49,5,1,0,2.53,1.2,5.3,0,9-.04.13-1.44.7-1.77,1.69-.55,1.69-2.68,9.31.27,9.31h22c3.09,0,4.01-7.33,4.5-9,1.08-3.64,1.93-4.71,2-9,0-.34,0-.7,0-1.06-.71-.94-1.23-2-1.44-3.15-.18-.96-.29-1.88-.37-2.8-.37-.52-.74-1.03-1.07-1.58-.5-.85-.89-1.73-1.21-2.62-1.77-1.82-2.7-4.34-2.78-6.9-.32,0-.69.03-1.13.11-.21-1.17.12-2.72,0-4-.59-6.51-.44-8.3-3-15-.46-1.21-1.94-1.85-2-2-.14-.31-.02-1.43,0-2,0-.33-.04-.67,0-1,0-.07.87-.15,1-1,.08-.51.12-1.7,0-2,.62-.01,1.61,1.36,1.99,1,.12-.64-.13-1.45,0-2,.5-1.92-.03-1.88,0-2,.39-1.43.95-1.86,1-2,.02-.07.73-.28,1-1,.19-.51-.18-1.48,0-2,.18-.51.7-1.18,1-2Z"/>
		</g>
	</a>

	<a href="./main_world.html">
		<g id="_Bat_" data-name="&amp;lt;Bat&amp;gt;" onmouseover="changeText('character','Bat')" onmouseout="changeBack('character')">
			<path class="cls-2" d="M1639.17,510.67c-8.38,10.78-9.49,20.04-21.69,29.31-6.2,4.71-8.45,7.66-16.47,4.5-7.72-3.04-24.34-25.18-33-32-10.93-8.6-41.03-6.18-52.9.12-2.32,1.23-6.74,3.99-7.11,6.39-.14.94.07,2.03,0,3,9.16-.14,18.16,1.08,27.01,3,.23.05.73.84,1.57.96,6.69.9,11.08-6.14,17.35-2.37,1.78,1.07,2.85,3.19,4.73,4.27,12.51,7.22,17.37,9.15,27.87,20.13,3.72,3.89,10.37,14.89,15.49,15.01,2.22.05,13.08-2.06,15-3,2.24-1.09,3.53-3.12,5-5,2.27.37,3.05-.73,4.54-1.96,8.23-6.82,15.99-15.41,23.46-23.04,1.17-1.19,3.33-1.95,4-4h1c2.5.28,2.9-2.01,4-3,3.05-2.76,8.34-7.3,12-9,.26-.12.7.11,1,0,1.03-.39,1.59-.77,1.85-.92l.15-.08c1.62-.21,3.86,1.22,6.68.26,2.88-.98,5.73-3.69,7.32-6.26,1.32-.65,2.14-1.54,3-2,6.36-3.38,7.98-4.19,15-6,1.13-.29,2.27-.56,3.39-.9l.56-3.03c-22.26-4.55-55.55-3.98-70.78,15.6Z"/>
		</g>
	</a>
	
	<a href="./main_world.html">
		<g id="_Skeleton_" data-name="&amp;lt;Skeleton&amp;gt;" onmouseover="changeText('character','Skeleton')" onmouseout="changeBack('character')">
			<path class="cls-2" d="M1096.5,767c1.09-.07-.03-1.47-.5-1-.22.22.15,1.02.5,1Z"/>
			<path class="cls-2" d="M1220.83,772.13c-.7-.53-2.1.05-2.83-.13,0-2.39,1.2-4-.02-7.39-.86-2.38-2.46-3.44-2.98-4.61-2.12-4.82-2.29-7.2-6-12-.52-.67-1.36-1.36-2-2-.16-.16.07-1.21-1-2-.2-.14-.68.12-1,0-2.52-7.36-8.36-12.71-15-17,.03-.27.08-.77,0-1-.56-1.7-6.13-4.74-8-6-1.52-1.02-2.75-1.3-4-2-2.56-1.43-2.74-2.73-7-4-4.69-1.4-5.01,1.35-8-4-.14-.25.14-.74,0-1-1.15-2.1-1.31-1.39-3-2-.3-.11-.73.12-1,0-.77-.34-1.95-.57-3-1-2.89-1.19-6.94-2.61-10-4-3.12-1.42-6.15-4.42-9.89-5.12-.56-.78.6-5.39.89-6.88.37-1.92,1.43-3.41,1.69-5.28.45-3.14-.56-6.01-.69-8.72,0-.05.97.09.98-.5l-.98-.5c.29-.37.8-.68,1-1,1.59-2.6.8-3.35,1-6,.11-1.4.11-1.49,0-3-.05-.65.09-1.36,0-2-.11-.84,0-1.71-1-2,0-.33.02-.67,0-1-.07-1.3.18-2.8,0-4-.3-1.95-1.41-4.14-2-6-1.17-3.68.73-3.98-4-7-2.38-1.52-3.84-2.58-7-2,.11-.66.21-1.9-.66-2.05-3.33,1.26-4.66-.9-8.34-1.95-4.57-1.31-8.33-.78-13.03.47-3.8,1.01-8.77,4.14-11.97,6.53-4.66,3.49-7.72,3.75-4,10-3.02,3.53-2.37,11.9-2.06,16.55.12,1.86-.24,3.74,2.06,4.45-1.97,4.79,1.62,10.27,3.7,14.85.42.93.09,2.65.4,3.07.3.41,1.66-.11,1.91.08.31.23.46,3.86,2,7,1.42,2.89,1.81,5.2,5,7-1.03.92-1.92,2.03-2.73,3.17-.16,2.03-.85,4-2.08,5.6-.23.3-.47.58-.74.85-.07.4-.16.79-.25,1.18-.3,1.27-.77,2.49-1.15,3.73-.15.49-.23,1.06-.43,1.53,0,0,0,.01,0,.02,0,.05,0,.09,0,.14-.11,2.63-1.09,4.93-2.67,6.66.02.38.04.75.06,1.11.14,3.88.7,3.86,1,6,.01.1.03,1.9,0,2-.09.31.09.69,0,1-1.17,4.05-1.2,7.29-2,10-.04.14-1.64.81-2,2-.81,2.66-1.27,5.3-2,8-.58,2.13-1.81,4.55-2,7-.64.14-1.39.88-2,1-.52.1-.66-1.38-3,1-.33.34-.7.64-1,1-3.71,1.26-4.42,1.73-6,5-.27.56-1.07,1.1-1,2-.11.02-1.92.92-2,1-5.22-.4-9.62-2.05-15-2-1,0-4.94-.16-5,1h-3c-4.29-1.93-5.46-3.62-11-2v-1l-.53-1.01c-1.36-.36-2.34,1.01-2.47,1.01-1.31-.08-2.77-.93-4-1-4.11-5.54-12.85-4.15-19-5-.96-.13-2.03.11-3,0v-1.97c-2.45.28-4.68-.59-7-1.03-.89-.17-2.05.13-3,0-.27-.04-1.06-.93-2-1-.98-.08-2.01-.01-3,0l-.65-.86-3.35-.14c.91-4.03-3.13-4.19-6-5-.06-1.16.26-3.21,0-4-.51-1.55-.52.24-1-3,2.67-2.99,3.09-7.47,4-11,.21-.82.73-1.49,1-3,.06-.06.08-.18.06-.3.68-3.75,1.47-6.91.95-11.19.01-.87-2.14-.67-2.5-.5-1.18.54-4.48,11.67-5.5,14-2.64,5.96-6.08,9.83-7,17-5.79,1.36-9.87-2.44-13.57,4.91l1.57,4.09c-.57.4-1.35,2.25-2,3-.1.12-1.45-.47-2.01.69-1.54,3.19-3.46,10.29-4.99,14.31-.26.69-.75,1.31-1,2-5.91.47-15.12-2.71-20.38.93-.95.66-.53,2-.62,2.07-.41.31-2.79,1.91-3,2-1.22.53-5.12.34-6.97,2.1-.58.8.95,1.77.97,1.9.08.97-.16,2.11,0,3,.06.33-.08.7,0,1,2.23,8.85,3.65,6.52,9,11,.16.14.05,1.75,1,2.46,6.2,4.6,8.42,5.12,16,5.54,1.99.11,4.01-.05,6,0l.5.99,5.5-.99c1,0,2-.03,3,0-.11.27.09.67,0,1-.02.09-1.25.16-1,.99l5-.99c.33-.03.69.06,1,0,1.57-.3,1.89-.98,2-1,4.03-.91,8.08-1.71,12-3.02.24-.33-.73-3.12-1-3.98-2.06-6.54-3.71-3.84-5-5-.72-.65-1.87-10.05-6-8,.02-.29.07-.73,0-1-.14-.55-.66-1.5-1-2,.44-.16.9-.54,1-1,.07-.32-.05-.68,0-1,.44-2.81-.21-5.04,0-7h1c.33-.08.83.13,1,0,1.46-1.16,1.81-2.22,2-4h1c1.31-1.35,2.48-2.86,4-4,.73-.55,2.24-.07,4-2,.32-.35.7-.61,1-1h2c1.31,0,2.71-.12,4,0,2.03.19,3.97.74,6,1,.33.04.67-.05,1,0,1.14.16,2.28,1.02,5,1,1.31,0,3.31.48,4-1,1.33.06,2.67-.04,4,0,.23.05.63.92,1,1,.32.07.68-.07,1,0-.69,2.26,2.06,2.85,4,3,.66.05,1.34,0,2,0v-2c.91.22,1.89.73,3,1,8.91,2.14,16.83,4.3,26,6,12.24,2.27,24.68,3.51,37,5,.33.04.67-.04,1,0,1.68.2,3.66.76,6,1,1.64.17,3.36-.16,5,0,.66.06,1.34-.07,2,0,.22.02,1.05.9,2,1,.97.1,2.07-.14,3,0,.97.15,1.58,1.03,4,1,.67,0,1.33,0,2,0l1.12-2.86c.27-.28,1.33-.21,1.88-.14.54.07,1.64,1.38,1.99,1,.06-.66-.06-1.34.01-2,.03-.32.02-.68,0-1-.14-2.73.59-3.31-2-5-.88-.57-1.97-.85-3-1-1.15-.16-2.76-.03-4,0-2.37.07-2.98.83-4,1-.32.05-.68-.07-1,0-.58.13-1.36-.09-2,0-.23-.67-.85-1.37-1-2-.65-2.68-1.85-6.65-1-9,.53-1.45,2.25-3.46,3-5v-1h1c.46-.21.68-.65,1-1,1.39-1.52,2.72-3.9,3-6,.54.13,5.15-.39,6-1-.25,2.31,2.45,3.27,3,5,1.01,3.19.89,8.82,2,13,.62,2.35,1.95,2.83,2,3,.74,2.42,1,4.19,2,7,1.19,3.36,3.25,6.92,4,9,.49,1.35,1.7,4.84,2,6,.08.31-.07.68,0,1,.09.46,1.07,6.08,1.05,6.43-.14,1.8-2.55,3.44-3,6.12-.63,3.85-.11,10.25-.05,14.45.05,3.32-.06,6.67.02,9.99.97.18,2.06-.13,2.98,0-.08.64.12,1.4,0,2-.12.58.06,1.35,0,2-.37,4.03-1.17,8.34,2,12l-1,1c-.13.27.14.74,0,1-.14.26.14.74,0,1-.88,1.7-2.03,3.35-3,5-.38.26-.67.82-1,1-.56.31-1.41.73-2,1-.27.13-.72-.12-1,0-.84.36-1,.16-2,1-.36.31-.7.64-1,1-.64.02-1.49-.13-2,0-2.46.62-2.74,1.47-4,2-2.94,1.25-6.25,1.52-8.46,4.94-.28,1.85.35,3.58,1.46,5.06.27.36.62.77,1,1,1.77,1.04,4.17.98,6,2,.12.58.33.99,1,1h1c.31.32.66.78,1,1,5.54,3.62,5.7,1.04,11,0,.91-.18,1.72-.95,2-1,1.22-.21,2.77.2,4,0,2-.33,4-.65,6-1,1.99-.35,4.01-.66,6-1,2.09-.35,3.84-.56,6-1,.9-.18,2.15.2,3,0,1.15-.27,1.69-.91,2-1,.65-.19,1.31-.78,2-1,.85-.28,2.4.42,3-1,.65.07,1.37-.1,2,0,.48.08,1.5,1.26,1.86.85l.14-1.85h3c.63,1.73,1.5,5.15,3,6-.32.15-.62.8-1,1-6.12,3.25-7.63,5.86-12,10-.95.9-3.18,1.3-4.56,2.93-3.51,4.13-3.25,13.42,3.56,9.07h1c1.23,1.61.74,1.53,3,2,.6.13,1.38-.11,2,0,.63.11,1.43-.14,2,0,4.14.98,4.74,2.23,9,2,.33-.02.67.04,1,0,.34-.04.71.07,1,0,.64-.15,1.34-.74,2-1,.29-.11.72.12,1,0,.44-.19.73-.88,1-1,.38-.17.68-.86,1-1,2.25-1,4.11-2.17,6-3,.75-.33,2.05-.66,3-1,.05-.02-.23.42,1,0,.18-.06.46-.82,1-1,.27-.09,2.55-.23,5-1,.54-.17,1.47.17,2,0,1.57-.51,3.52-1.28,5-2,.85-.42,2.36.14,2.92-1.64.56-1.75-.4-2.94-.92-4.36-.91-2.52-4.66-7.87-5-9-.09-.31.09-.69,0-1-1.41-4.95-.3-3.66-3-9-.38-.75-.42-1.96-1-3-1.16-2.07-2.56-4.11-4-6-2.2-2.89-2-2.3-4-4-1.33-1.13-3.1-1.98-3-4,.11-.2-.06-.64,0-1,.31-2.04-.57-5.04-3-6v-1c-.07-.65.1-1.37,0-2-.26-1.63-.67-3.37-1-5-.27-1.34-1.02-2.58-1-3.99l6-1.01c0-.33,0-.67,0-1,1.32-1.96,2.82-.97,3-1,1.02,1.72,2.08,1.6,3.82,1.37,9.89-1.32,19.36-9.42,24.18-17.37,1.54-2.55,1.27-3.46,2-5,.69-1.46,2.22-2.93,3-5,2.23-5.94,1.49-7.29,2-12,.1-.88,1.6-3.2,2-5,1.43-6.45,1.23-11.39-1.17-17.87Z"/>
		</g>
	</a>

	<a href="./main_world.html">
		<g id="_Ghost_" data-name="&amp;lt;Ghost&amp;gt;" onmouseover="changeText('character','Ghost')" onmouseout="changeBack('character')">
			<path class="cls-2" d="M289,490c0-.99.07-2.01,0-3-.05-.66.07-1.35,0-2-.18-1.75-.81-2.85-1-4-.45-2.73-.47-5.14-1-8-.35-1.9-1.71-5.03-2-8-.09-.98.09-2.02,0-3-.08-.85-.02-1.73-1-2-.02-.33.03-.67,0-1-.07-.65.07-1.35,0-2-.26-2.25-.67-4.72-1-7-.72-4.95-2.24-10.04-3-15-.91-5.9-1.79-6.75-3-11-.22-.79-.64-12.96-1-16-1.12-9.61-1.86-19.55-3-29-.34-2.81-.56-5.14-1-8-.63-4.04-1.15-5.48-2-9-.08-.32.08-.69,0-1-.37-1.43-.42-2.21-1-4-.1-.32.12-.76,0-1-.25-.5.54-1.6-1-2,.12-2.65-2.1-18.76-3.03-21.24-.42-1.12-1.99-1.08-2.38-1.81-1.2-2.26-.4-2.57-2.6-4.95-2.75-3-4.58-1.97-6-3-1.79-1.3.81-3.07-6-4-3.21-.44-8.88-1.06-12-1-2.12.04-4.44.21-6.35,1.19-.29.15-4.16,3.37-4.65,3.81-1.16,1.04-1.43,2.4-2,3-.36.38-1.93.42-2.33.92-.33.41-2.91,4.09-3.01,4.35-.81,2.02.06,5.56.33,7.74-.35.05-.74-.09-1,0-.07.02-.85.82-1,1-1.47,1.84-2.7,4.91-1,7-4.8,5.34-2.93,10.55-4,17-.73,4.38-1.81,6-2,12-.06,1.98.16,4.03,0,6-.08.97.16,2.11,0,3-1.71,9.64-3.46,13.13-3,24,.11,2.58-.31,5.56,0,8-3.4,1.97-2.38,6.93-3,10-.52,2.55-1.61,5.09-2,7-.34,1.65-.7,3.35-1,5-1.19,6.46-2.03,13.99-3,21-.29,2.12-.33,3.83-1,6-2.13,6.92-2.67,11.44-4,19-.31,1.77-2.05,3.82-.57,6.07.84,1.18,5.82,1.64,7.57,1.93,9.59,1.6,19.66,1.6,29,2,1.33.06,2.67,0,4,0,.67,0,1.33,0,2,0,.21,0,1.86,1.03,4,1,1.7-.02,2.8-.99,3-1,3.2-.18,7.64.95,10-1,.66,0,1.35.05,2,0,2.64-.22,4.86-.91,8-1,8.19-.23,18.62,1.26,26.5,0,1.08-.17,1.89-.4,2.34-1.5-.02-.58-.83-1.2-.83-1.5Z"/>
		</g>
	</a>
</svg> 