<?xml version="1.0" encoding="UTF-8"?>
<svg xmlns="http://www.w3.org/2000/svg" class="svg_pic" viewBox="0 0 1920 1080">
	<defs>
		<style>
			.cls-1 {
				fill: rgba(0, 0, 0, 0);
				stroke: #ffffff;
				stroke-miterlimit: 10;
				stroke-width: 5px;
			}

			.cls-2 {
				fill: rgba(0, 0, 0, 0);
			}
		</style>
	</defs>
	<g id="Livello_2" data-name="Livello 2"> <!-- Background -->
		<rect class="cls-2" width="1920" height="1080"/>
	</g>

	<a href="./main_world.html">
		<g id="_Ghost_" data-name="&amp;lt;Ghost&amp;gt;" onmouseover="changeText('character','Ghost')" onmouseout="changeBack('character')">
			<path data-name="&amp;lt;Ghost&amp;gt;" class="cls-1" d="M1143,286.5c2.41-9.28,4.43-18.93,13.94-23.56,12.71-6.19,25.01.86,29.06,13.56.24.76-.22,2.17,0,3,.95,3.55,1.38,6.44,2,10,.08.46.54.87,1,1v4l5,26c-.02,4.54.76,8.13,1,12,.94,15.11,2.93,28.17,5,43,.18,1.27-.18,2.74,0,4,.1.73.83,1.83,1,3,.27,1.88.84,3.77,1,5,.26,1.98,1.22,9.94.71,10.78-.2.33-4.52.53.29,3.22-1.07,1.47-1.97,2.33-1.95,4.35.02,2.39,2.28,16.53,2.96,18.97.26.91,1.26.78,1.99.68v3h-1.99c-.41,1.08.98,1.89.99,2,.08.91.09,2.1,0,3-.29,2.8-2.78,1.73-2,5-1.24.17-2.91-.26-4,0-.21-.38-.92-.74-1-1-.41-1.3,1.03-2.47-1.99-1.99v1.99c-3.55.05-8.02,1.45-12.01,2-.97-2.05-5.01-.36-5.91-1.09-.36-.29-.72-5.34-1.63-6.87-1.83-3.06-6.03-1.57-3.45-8.03l-5-1.02c3.51-5.14.48-5.31.03-8.53-.38-2.75.16-5.69-.04-8.46h-2.99c-.98.94.37,14.05-.05,16.45-.1.61-2.19,7.29-2.42,7.62-.76,1.08-2.98.35-3.57,1.65-.91,2.03.04,5.59.04,7.77,0,1.92,1.01,4.09-2,3.53-.15-.17-.77.16-1,0l.58-8.05c-.86-3.24-3.99-2.53-5.06-3.97-2.87-3.87-2-10.2-2.62-14.38-.92-6.2-3.01-11.85-1.9-18.61h-3.99s-2.01,28-2.01,28c-.35.04-4.63,2.01-4.78,2.23l-2.19,9.12-2.89.75c-.5.43-.04,2.06-.14,2.9-2.7.53-5.37,1.27-8,0,.02-1.21.89-2.74,1-4,.15-1.69.9-3.05,1-4,.14-1.31-.15-2.7,0-4,1.31-11.33,3.58-22.67,5-34,.2-1.62-.2-3.38,0-5,.09-.71.85-1.83,1-3,1.66-13.32,3.62-26.63,5-40,.14-1.31-.13-2.69,0-4,1.21-11.94,1.26-24.11,3-36,.28-1.92.73-3.4,1-5,.71-4.17,2.02-7.95,3-12,.21-.86-.22-2.17,0-3Z"/>
		</g>
	</a>

	<a href="./main_world.html">
		<g id="_Hype_" data-name="&amp;lt;Hype&amp;gt;" onmouseover="changeText('character','Evil Hype')" onmouseout="changeBack('character')">
		<path class="cls-1" d="M1206,961.5c0-.27.81-1.27.84-2.43.07-2.58-2.92-7.3,1.16-6.57.06-.65-.09-1.36,0-2,.09-.63-.03-1.35,0-2,.08-1.65.01-3.34,0-5,0-1.32.09-2.68,0-4-.09-1.24.26-3.01,0-4-.08-.29-.75-.67-1-1l-1-8c.22-.17,1.34.24,1.91-.05l-4.91-16.95c-.38-3.22-2.01-2.4-3-3-.37-.22-.71-.92-1-1l-3-6c-.29-1.76.42-4.49,0-6-.03-.12-1.29-.53-1.78-1.67-.35-.82-.03-1.98-.22-2.33-1.77-3.19-6.67-4.34-10-4,1.97-6.39-.6-4.52-1-6-.38-1.41.96-3.6,1-5,.1-3.31-.18-6.69,0-10,.19-3.35.02-4.56,1-8,1.08-3.8-.8-1.62-2-4-.12-.25.11-.68,0-1-.56-1.61-.44-4.37-1-6-2.35-6.83-5.29-5.97-11.44-8.11-1.09-.38-2.21-1.79-2.56-1.89-.31-.09-.69.08-1,0-.31-.08-.68.07-1,0-1.78-.4-5.16-.89-7-1-1.32-.08-2.67,0-4,0-2.18-.02-4.96-.27-7,0-.26.03-.69.94-1,1-1.67.32-4.66.47-6,1-6.5,2.57-7.02,4.37-8.54,11-.35,1.51.63,2.87.54,3-.42.58-1.67-1.71-2,3-.31,4.43.6,7.21,1,11,.24,2.25-.16,4.71,0,7,1.52.42,5.23,2.95,8,3,.04,1.25.63,1.99,1,3-2.15-1.39-5.3.02-6,0-.61-.02-1.65.15-2,0-.13,1.29.18,2.75,0,4-.05.33.04.67,0,1-.04.33-2.33,2.25,0,3-3.53,1.86-3.37.64-5.9,1.51-5.19,1.78-3.14,4.74-4.15,6.75-.8,1.58-1.89.7-2.95,4.75-.66,2.52-2.08,9.8-2,12,0,.16.92,2.86,1,3l-3,1c.26.51-.18,2.18,0,3l1,1v1c-3.11,1.15-1.63,4.62-2,7-.4,2.61-.61,5.36-1,8l1.93-.05.54-3.99c.64-1.08,1.67-.74,2.53-.96l-.55,11.98,4.07,2.09,2.48-3.07c-.29,2.51-.86,5.78-1,8-1.33-3.13-4.32-1.88-7-2l.15,4.86c.22.37,3.06,1.04,3.85,1.14l-1,5c-.04-.57-1.7-2.46-1.01-4-1.97-2.21-4.95,7.36-4.99,8.62-.08,2.51,1.76,3.34,1.99,4.38,1.34,6.03-1.04,11.36-2,17-.65,3.87-1,6.1-2,10-.43,1.67.5,4.03-1,6-2.32,3.05-6.86.67-10,1,0-.99.08-2.02,0-3-4.35-.32-2.36-7.97-7.99-7.01l2.07-1.57-1.09-3.41-1.49,2-2.5-2.01c.25.68.75,1.3,1,2,.26.73-.26,2.27,0,3,.43,1.22,1.4,3.46,2,5,.47,1.2,1.98,5.27,2.3,5.71,1.21,1.7,3.99,1.74,5.7,2.29,7.56,2.44,15.58,3.19,23,6,1.24-.19,2.84.24,4,0,.32-.07.68.06,1,0,2.4,1.08,2.22,2.61,2,5-.39,4.3-2.92,9.42-3,14,2.05-.07,5.39,1.82,8,1-.02-.33.04-.67,0-1,.62.11,1.49-.16,2,0,1.48.48,2.88,2.09,5.07.57,1.49-1.26.66-3.19.93-4.57.25-1.28.93-3.27,1-4,.23-2.27-.16-4.7,0-7-.6.08-1.37.03-2,0l1.01-7c2.8-.82,1.23,2.13,3.41,2.08,1.43-.04,8.3-1.33,8.57-2.6-1.89-3.56-5.61-8.13-10-7.49v-2.99c1.09-.02,2.16-.12,3.21-.26-.2-.81-.21-1.67.03-2.46,1.5-4.93,6.64-7.71,11.53-7.27-3.49-1.42-7.59-2.65-10.77-3.01l-2.99-2.49c.88-1.96,4.6-1.2,4.94-1.56.55-.59-.81-4.94,1.57-5.94l6.02,3.08,4.46-2.08-.7,2.98-5.87,2.01.24,2.75c4.21,3.83,8.3,5.45,13.32,2.27.06,3.12.66,6.12,1.01,8.99-.95.66-1.94,1.52-3,2-.81,4.84-2.13,10.27,0,15h4c.01.67-.03,1.34,0,2,.39,8.11-.89,3.12-2.32,9.25-.33,1.4-.81,7.49-.68,8.75.32,2.9.82,2.36,3,3,.77.22,2.08-.16,3,0,1.87.32,3,1.57,6,1,2.18-.42,3.65-1.8,4-4,.3-1.86.07-4.96,0-7-.04-1.3.16-2.75,0-4-.08-.66-.77-1.94-1-3-.06-.3-.77-1.09-1-2-.08-.31.09-.69,0-1-.82-2.94-2.19-5.72-2.08-8.94l-1.92-.06c-.05-.98-.06-2.02,0-3,.01-.24,1.64-1.58.99-2.99h-1.99c.04-.66-.08-1.37,0-2.01.02-.16.8-2.37,1-3,.16-.5-.14-1.37,0-2l1.44.09c-.04-.29-.08-.58-.12-.87-.02-.35.02-.69.09-1.03l-3.42-1.2c.06.3.08.62.09.96,0-.34-.03-.66-.09-.96-.02-.11-.75-1.41-1-2l3.01-8.57c-.78-3.48-.79-6.9-1.01-10.43,5.08,1.19,12.21,5.26,17,6,1.11.17,2.79.05,4,0,1.42-.06,5.35-2.06,8-1,.03-.11.91-1.93,1-2-2.49-3.99-2.94-2.97-3-8Z"/>
		</g>
	</a>

	<a href="./main_world.html">
		<g id="_Drareg_" data-name="&amp;lt;Drareg&amp;gt;" onmouseover="changeText('character','God Drareg')" onmouseout="changeBack('character')">
			<path class="cls-1" d="M885,694.5c-.08-2.31-.92-4.28-1-6-.17-3.93.26-7.19,0-11-.05-.69-.83-2.4-1-4-.16-1.56,0-3.38,0-5,0-1,0-2,0-3v-1c-.33-.05-1.24-1.08-2-1,.09-.6,1-1.54,1-2,0-.33.02-.67,0-1-.11-2.35-.88-5.01-1-8-.28-7.07-.54-13.95-1-21-.06-.99.07-2.01,0-3-.31-4.65-.66-9.34-1-14-.18-2.5-.82-4.66-1-7-.15-1.98.16-4.02,0-6-.09-1.17-.95-2.37-1-3-.05-.66.05-1.34,0-2-.13-1.65.12-3.35,0-5-.15-1.98.14-4.02,0-6-.17-2.43-.78-5.16-1-8-.13-1.65.09-3.34,0-5l-1-2c.05-.66-.03-1.34,0-2,.1-2.3.09-4.7,0-7-.03-.66.03-1.34,0-2-.31-6.68-1.61-14.21-2-21-.04-.66.04-1.34,0-2-.1-1.66.08-3.34,0-5-.03-.52-.97-1.48-1-2-.1-1.99.04-4.01,0-6v-1c.04-1.66-.09-3.34,0-5,.02-.33-.02-.67,0-1h-1c-.38-2.6-.16-7.21,0-10,.04-.66-.06-1.34,0-2-1.98-3.03-.75-7.38-1-11-.13-1.82-.89-3.5-1-5-2.73-36.99-5.48-74-8-111-1.87-2.32-.93-6.84-1-10-.03-1.33.06-2.67,0-4-2.45-52.48-4.8-105.01-7.04-157.46-.38-8.86.85-17.8-.96-26.54l-1-1c1.07-5.98,1.15-11.93,1-18-.01-.55-.97-1.86-1-3-.04-1.66.05-3.34,0-5-.06-2,.07-4,0-6-.08-2.33.09-4.68,0-7-.01-.33.01-.67,0-1-.05-1.33.04-2.67,0-4,0-.26-.92-2.01-1-4-.04-1,.04-2,0-3-.21-5.49,1-12.12-1-17-.02-1.67.02-3.33,0-5-.17-15.02-1.22-29.97-1-45-2.51-5.04-.06-12.14-1.04-17.46-.13-.68-5.2-11.19-5.96-12.54-1.71-3.04-4.14-5.88-5.71-9.06l-19.29-8.94c-3.95-2.33-7.73-3.32-12-5-2.68-1.06-9.37-2.01-9-5h-426c.72,4.5-.71,8.79-1,13-.43,6.29-.59,12.7-1,19-.17,2.64.17,5.36,0,8-.07,1.1-.87,2.93-1,5-.72,11.32-1.29,22.69-2,34-.69,10.99-1.31,22.01-2,33-.04.66.04,1.34,0,2-.51,8.29-1.55,16.73-2,25-.05.99.05,2,0,3-.17,3.19.94,7.64-1,10,.02.33-.02.67,0,1,.3,5.53-.8,10.34-1,15-.01.33.01.67,0,1-.04,1,.05,2,0,3-.14,2.98.16,6.02,0,9-.24,4.53-.74,9.34-1,14-.06.99.05,2.01,0,3-.43,7.77-1.62,16.05-2,24-.05,1,.05,2,0,3-.11,2.4-.95,4.94-1,6-.02.33.01.67,0,1-.03.66.02,1.33,0,2,1.09,2.22,2.69,9.98,0,11,.03.66-.04,1.34,0,2-2.02,3.4-.76,8.82-1,13-.05.92-.99,1.8-1,2-.47,8.62-.09,17.38-1,26v3c-.07,1.99.1,4.01,0,6-.02.33.02.67,0,1v3c.79,3.1-.86,6.35-1,9-.04.66.04,1.34,0,2-.2,3.7-.81,7.73-1,11-.08,1.33.08,2.67,0,4-.12,1.99.13,4.02,0,6-.09,1.32.09,2.68,0,4-.14,1.94-.97,3.58-1,4-.2,2.97.23,6.04,0,9-.08.99.09,2.01,0,3-.06.66.06,1.34,0,2-.03.33.03.67,0,1v1c-.04.33.05.67,0,1-.09.65-.99.93-1,1-.09.64.06,1.35,0,2l-2,7c.03,3.3-.37,6.79-1,10-.55,2.83-3.44,6.68-2,11-.29.02-.73.07-1,0-.1.97.15,2.06,0,3-1.15,7.35-2.62,14.69-4,22-.94,4.97-2.53,9.34-3,15-.05.66.06,1.34,0,2h-1c-.11.96.17,2.11,0,3-.15.81-.85,1.7-1,3-.11.96.16,2.1,0,3-.16.92.17,2.09,0,3-.02.11-.59-.1-1,2-.07.34-.82,1.1-1,2-1.22.65-1.56,2.67,0,3-.19.95-.94,1.69-1,2-1.1,5.62-1.9,11.37-3,17-.12.61.12,1.39,0,2-1.38,7.04-3.3,14.03-5,21v2c.57,1.88-.78,3.63-1,5-.1.63.1,1.37,0,2-.36,2.24-.61,5.02-1,7-.92.29-1.01,1.15-1,2,0,.67,0,1.33,0,2-1.06,2.1-3.79,7.45-3.98,9.54-.21,2.34.28,4.92-.02,8.46-.09.99.08,2.01,0,3-.03.33.02.67,0,1-.01.16-.83.94-1,3-.06.66.04,1.34,0,2-1.57,2.4-1.85,6.18-2,9-.02.33,0,.67,0,1-.73,4.94-3.21,3.36-5,6,.91,1.23.82,2.59,1,4,.23,1.88.09,3.22,0,5-.02.33.03.67,0,1l-2.01.51.02,1.49,1.99-1c-.07.65.07,1.35,0,2-.33,3.06-1.5,6.51-2,10-.33,2.33-.5,4.69-1,7l-1,1v5c-.33.02-.67-.02-1,0-.16,0-1.35.9-3,1l.03,1.33c2.37,1.18,1.88,1.38,1.97,3.67.04.97.08,2.03,0,3-.13,1.62-.7,5.18-1,7-.35,2.17-1.5,5.26-2,8-.24,1.35-.75,2.65-1,4-.11.62.12,1.38,0,2-.22,1.16-.71,2.55-1,4-1.19,6.02-2.7,12.02-4,18-.39,1.81-.32,2.73-1,5-.16.52.11,1.37,0,2-.29.03-.75.97-1,1-.11,1.65.16,3.36,0,5-.22,2.21-.61,4.81-1,7-.37,2.11-1.58,4.87-2,7-.39,2.01-.85,4.97-1,7-.05.66.03,1.34,0,2-.62.09.25.75-4,1-.84,1.48,1.87,2.82,3,3-.21,1.34-.87,2.66-1,4-.03.33.01.67,0,1-.02.66.05,1.34,0,2-.12,1.55.65,3.25.49,4.48-.28,2.24-2.3,7.72-2.93,10.54-.47,2.1,1.22.9,2.44,1.99,4.39-1.3,12.24-.8,17-1,5.93-.25,10.11-.07,16,0v1c2.69-.93,6.1.91,8,1,2.9.13,5.77.93,8,1,.67.02,1.33-.02,2,0,1.61-1.37,5.41-1.43,7.5-1.43,6.02-.02,13.66.07,19.5,1.43-.33,0-.67,0-1,0,.35,2-1.48,2.31-2,3-.29.38-.78.67-1,1-5.01,7.42-9.75,15.35-16,22,.2.31-.13,1.42,0,2-2.14.04-6.42-.84-7.73-.28-2.68,1.15-2.34,3.88-3.98,5.34-1.74,1.55-8.72,4.34-10.29,5.94-1.88,1.93-1.42,1.9-4,4-2.03,1.65-3.18,3.22-5,5-.4.39-.42,1.92-1.28,2.69-.84.77-6.2,3.43-7.72,4.31-.69,3.77-8.05,8.31-11,11-.5.45-1.54,1.5-2,2-2.72,2.97-1.33.87-3.76,2.22-.27.15-2.34,3.6-3.71,4.81-3.67,3.23-16.33,13.19-17.29,16.72-.56,2.08-.12,4.16-.24,6.25-.06.99,0,2.01,0,3,0,1,0,2,0,3v2c-11.12,8.75-20.74,14.95-32,23-.37.27-1.01,1.61-2.05,2.4-2.71,2.04-9.17,4.77-3.95,6.05-1.62,5.61-6.5,14.82-6.79,20.32-.13,2.46.96,3.31,1.79,5.23.14.32.8.62,1,1,.14.26-.14.74,0,1,1.32,2.43,3.44,5.53,5,8-2.83-.22-2.7,2.96-4.71,3.79-4.37,1.8-9.56,3.32-14.29,4.21v1c-.18,1.28-1.26.78-2,1-.31.09-.7-.1-1,0l3,34c1.67-.02,3.33.04,5,0,2.66-.06,5.35.02,8.01,0v2c.66-.02,1.33.03,1.99,0,.41-.02.83.01,1,0,3.15-.19,7.98-2.7,11,0,10.36-.62,21.59.43,32,1,8.96.49,18.07,1.12,27,2,3.31-.33,7.56-.07,11,0,6.38.13,13.37.83,20,1,13.05.34,23.87.42,37,0,1.99-.06,4.01.08,6,0,5.57-.22,10.92-.69,16.45-1.04,2.42-.15,6.64-.61,8.55,1.04,2.66-.85,4.49-.68,7-1,11.03-1.4,21.8-.63,33-1,.33-.01.67.01,1,0,1.99-.07,4.01.12,6,0,2.21-.13,4.67-.71,7-1,11.16-1.37,11.58-3.36,20-6,18.54-16.96,37.3-33.69,55.99-50.51,17.62-15.86,35.24-31.12,51.98-48.07,4.14-4.19,1.28-3.14,7.66-6.24.11-.6.32-1.18.63-1.71.76-1.31,2.13-2.25,4.11-2.25.08,0,.16,0,.24.01.13-.47.2-.88.41-1.24.15-.25-.14-.75,0-1,1.18-2.08,3.53-4.29,3.95-6.55.9-4.8-.88-11.85.05-16.45-.92-.34-1.75-1.02-2-2-1.02-4.05-.24-12.55,0-17,.05-.92.99-1.81,1-2,.45-9.38.71-13.94-1-23-.12-.62.13-1.41,0-2-2.14-9.55-5.22-14.72-9-23-.13-.28.13-.73,0-1-.48-1.02-1.51-1.98-2-3-2.17-4.56-5.13-10.09-6-15,13.44.11,26.81-.46,40,1,.33.04.67-.04,1,0,8,1.09,12.89,3.55,20,5v2.08c2.35-.18,4.69-.21,7.04-.17,0-.3-.01-.6-.04-.9.66.06,1.34-.04,2,0-.15.35-.23.66-.26.94,4.14.1,8.29.34,12.48.26,2.83-.06,5.69-.28,8.56-.49,0-.56.07-1.13.22-1.7,1.67-.02,3.34.04,5,0-.04.34-.07.81-.1,1.39,1.37-.06,2.74-.08,4.1-.05v-1.34c1.99-.04,4.01-.02,6,0-.05.58-.16,1.24-.3,1.92,1.36.35,2.7.9,3.86,1.65,1.38.89,2.5,2.06,3.07,3.52.44,1.12.56,2.4.23,3.84-.24,1.08-.72,1.94-1.3,2.68-.03.83-.24,1.66-.64,2.38-.53.97-1.37,1.76-2.54,2.14.02.1.05.2.06.3.29,2.69-1.31,5.62-4.79,5.62-.17,0-.31-.03-.47-.04-.43.78-1.07,1.44-1.92,1.86-.09.04-.18.09-.27.12-1.15.54-2.87.89-2.98.99.01-.23.01-.47,0-.7-.36-.06-.7-.16-1.01-.29-.17.1-.35.2-.52.31,0,.42-.04.85-.14,1.31-.62,2.66-2.38,4.83-4.4,6.78-1.47,1.42-3.07,2.71-4.46,3.98-.33,1.88-1.6,3.55-3.81,3.92-2.02,2.32-3.88,4.84-5.5,7.44-.32.51-.63,1.01-.93,1.52-.55,1.33-1.03,2.66-1.4,3.99-1.99,7.12-2.55,13.56-6.62,19.94-.93,1.46-1.99,3.02-3.05,4.64-2.2,3.38-4.35,7.06-5.23,10.83-.04.18-.09.36-.12.54-.42,2.08-.44,4.18.17,6.27.69,2.38-.31,4.23-1.9,5.26.03.72-.01,1.47-.11,2.23-.18-.06-.38-.1-.58-.11.03.47,0,.94-.08,1.41l.67-.27-.99,4c-3.56,5.98-6.22,8.83-7,16-.11.98.11,2.02,0,3-.34,2.96-.75,6.06-1,9-.3,3.55-.87,7.85-1,11-.18,4.34-.31,9.72,0,14,.05.66-.06,1.34,0,2,.18,1.83,1.61,5.01,2,7,.12.61-.14,1.42,0,2-1.07-.03-2.15.84-3,1-2.07,5.92-8.85,8.1-11,14-.2.55-1.01,2.84-1,3,.14,1.7,1.68,5.55,2,9,.3,3.23.25,9.34,1,12,.45,1.6.49,2.41,1.55,3.93,4.31,6.19,5.48,3.11,10.91,3.02,8.29-.14,16.67.88,24.54,1.05,3.32.07,6.68-.05,10,0,.33,0,.67,0,1,0,2.99.04,6.01-.05,9,0,1.67.03,3.33-.03,5,0,6.32.1,12.68-.06,19,0,3.33.03,6.67,0,10,0,5.91.02,11.51.96,17,1,5.75.04,10.76-.77,16-1,2.69-.12,6.41,1.03,7,1,1.63-.08,6.21-2,7.5-2h19c1.97,0,7.28-1.73,10.02-1.99,2.15-.2,4.33.07,6.48-.01,1.36-2,2.61-.02,3,0,1.56.08,3.65-.27,5,0,.84-.97,1.85-.91,3-1,12.31-.93,24.65-2.19,37-2h4c7.81-3.31,23.14-.23,29.99-3.51,3.79-1.81,2.12-7.56,4.01-10.49.02-14.27.91-33.76,2-48,.62-8.11,3.46-17.07,4-25,.07-.99-.04-2,0-3,.41-9.07-.93-17.96-1-27,0-1,.01-2,0-3s.02-2,0-3c-.16-9.87.44-20.29,0-30-.03-.66.04-1.34,0-2-.24-4.24-1.4-9.48-1.52-13.98-.49-1.17-14.27-12.42-16.48-14.02-.35-1.96-.54-4.07-1-6-.08-.32.08-.69,0-1-2.15-8.64-5.12-17.26-7-26,6.99.06,14.01-.04,21,0,1.62.21,3.65-1.04,5-1,1.4-2.18,3.73-1.91,6-2,1.63-3.06,1.79-4.69,2-8,.06-.98.03-2.02,0-3Z"/>
		</g>
	</a>
	
	<a href="./main_world.html">
		<g id="_Skeleton_" data-name="&amp;lt;Skeleton&amp;gt;" onmouseover="changeText('character','Skeleton')" onmouseout="changeBack('character')">
			<path class="cls-1" d="M344.17,229.17c-.34.02-.66.04-.9.06-2.64.26-.81-2.25-1.27-3.73-.14-.03-.68-1.01-2-1l-1-.99c.66-.06,1.34.05,2-.01,1.16-7.69-3.15-.86-6.51-3.98-2.7-2.51-.23-5.81-.48-6.01-.23-.19-1.98.37-2.73-.26-.59-.49-.17-1.63-.28-1.75-.69-.68-.44.49-2-2-1.19-.43-3.54-.43-4.98-1l-2.01,4c-1.25-2.78-1.24-6.21-5.01-3.99-.1-.24-.9-.57-1-1-.05-.24.76-1.05.97-1.51-2.08.73-2.6-1.4-2.97-1.49-1.13-.27-5,.6-5.01-.5l5.01-.5c.59.25,1.95.02,3,.46,2.4,1,6.68,5.74,6-.45l-7.01-1.01,1.01-2.99c-2.26.11-12.1-2.98-12.06-4.65-.02-.71.94-1.06,1.05-1.35.17-.48-.12-1.38,0-2-1.97-.26-3.62-1.85-6.4,0l-1.6-1.99c.17-.29-.27-1.34.06-1.91l1.4-.13c.61.09,1.22.21,1.83.32-.56-.72-.85-1.59-.9-2.5-.18-.09-.31-.17-.41-.25-1.71-1.48-.85-5.85-2.01-7.79-.63-1.05-1.93-.63-1.97-.72-.22-.43.07-2.63-.46-4-1.96-4.99-6.85-4.43-11.54-5-6.34-.77-5.13-1.89-11,2-.24.16-1.38-.31-1.85.15-.42.58-.07,1.28-.15,1.85-.08.62-.01,1.36,0,2,.06,3.06.62,5.99,1,9,.09.71,1.19,1.94,1,3-.15.86-2.46,2.68-2,2.99l5.56.95,3.44,13.06c-.33.1-2.03,2.23-3,3-.51.4-2.82-1.26-2,3-.6-.13-1.41.14-2,0-.52-.12-1.41-1.66-3-.99-.01,1.33,0,2.66,0,3.99,0,1,0,2,0,3-.26-.11-.67.09-1,0,.47,1.41-.73,2.24-1,3-.35.97-.68,2.02-1,3-.37,1.13-.49,2.5-1,4-.29.85-.79,1.45-1,2-1.1,2.95-2.47,9.8-4,12-.09.12-1.3.05-1.92.64-3.65,3.5-1.91,1.28-5.08,2.36-7.23-5.21-15.16-9.64-22.29-15-.93-.7-.62-1.96-.71-2-.47-.23-2.04.38-2.85-.11l-.15-2.89c-2.02-.26-1.9.16-4-1-2.41-1.32-1.8-1.77-2-4-.88.06-2.2.14-3,0-.47-.08-.88-.52-1-1-.33-.08-.81.13-1,0-2.94-1.97-6.85-11.07-1-12,.24-2.19.77-4.35,1-7,.03-.33-.03-.67,0-1h-1l-2,1c-.21.67-.74,1.33-1,2-.48,1.23-1.32,2.86-2,4-3.49,5.84-2.44,2.05-6.27,3.21-1.52.46-2.56,2.63-3.73,2.79.13.74.17,3.41,0,4-.24.83-2.35,2.27-3,3-.16.17.31,1.53-.1,1.85-3.5,1.84-5.18-2.52-5.9-2.85-.43-.2-2.16.03-3,0-.33-.01-.67-.02-1,0-.33.02-.68-.06-1,0-.12.02-1.37.74-2,1-.39.16-1.46-.36-1.89.12-.5.57.06,2.12-.11,2.88l1,2c.48.39.88,2.23,1,3,2.1-.05,6.03,5.81,6.52,7.07.74,1.87-.36,2.07-.52,2.93.11.48.54.92,1,1,4.66.78,2.5,1.77,5,3,1.84.91,7.24,3.02,9,3,.36,0,2.52-1.73,4-1.01-.71-1.91-3.14-3.27-4-4.99-1.23-2.46-1.67-6.24-2-9-.08-.64.01-1.34,0-2,.77-1.25,1.34-2.35,3-2-.14-.94.08-2.03,0-3-.13-1.53-.27-2.61-1-3.99,2.79-.39,4.78,1.2,5,3.99,1.13.14,1.99.57,3,1,3.24,1.38,1.49,1.57,2,2,.25.21,1.39.03,1.97.59.98.95.85,2.21,1.03,2.41.19.21,2.75-.58,2,2,.67,0,1.33,0,2,0,.59,0,1.39-.24,1.83.13.58,5.21,3,3.04,5.09,4.4,8.16,5.31,13.29,8.98,22.07,13.47,1.36.7,3.14,3.41,6,4v1c.37.13,1.56.75,2,1,.91.52,1.65.91,2,2,4.71-.02,8.57,8.69,11,1-.81-.5-2.34-4.12-7-5-1.7-4.02,8.67-19.43,11-20,2.37-.57,6.79.12,8.51,2l-1.5,5,3.89-1.58-.89-4.41h3.99c-.82,4.18.88,6.71,2,10.42l-3.99,2.57c-2.02-.5-3.18-.36-4.99-2-.52,3.07.57,4.43,2.99,6-.97-.1-2,0-2.96.03-.55,2.29-.71,4.65-1.04,6.97-.05.33.04.67,0,1-1.09,8.6-2.6,17.64,0,26,4.52.52,9.46,1.31,14,2-2.47-.79-2.95-11.6-2.7-13.34.26-1.8,3.69-7.13,4.24-9.65.61-2.78-2.77-5.83,2.45-5.01.11.15,1.64.91,2,1-1.43,4.2,2.15,6.94,3,9,1.12,2.71-1.8,1.65,2,4,1.29.8.82.8,1,2,.87,5.7-2.49,10.15,4,13,4.11,1.8,1.49.76,3,2,1.42,1.16,6.12.76,8,1,1.9-2.67.77-4.72-2-6,.05-3.68-5.01-7.79-6-10-.19-.42-.75-3.02-1-4-.44-1.69-.79-5.08-1-7-.07-.65.05-1.34,0-2,.93.15,2.03-.1,3,0l4.6.64c.47-.32,1.04-.57,1.71-.72,7.23-1.62,12.74-7.02,16.11-13.44.79-1.51,2.05-2.24,3.39-2.41.24-3.36.64-6.71,1.26-10.08.06-.31.14-.6.23-.86-.07-.49-.13-.97-.14-1.46ZM279.99,192.49h-.98v-1.99h.98v1.99ZM272,218.5c-.58-.79-.77-2.04-1-3,3.53.42,8.19-1.3,10.99,1.51-2.86,2.09-6.67,1.46-9.99,1.49ZM308.5,236.5v-1c.65.33.65.67,0,1ZM330,236.5v-2s2,0,2,0c.52,2.49-1.65,1.72-2,2ZM338.5,230.5v-1c.65.33.65.67,0,1ZM339.5,228.5v-1c.65.33.65.67,0,1ZM340.5,239.5v-1c.65.33.65.67,0,1ZM342,235.5v2s-1-1-1-1v-3.99s.99,0,.99,0c.19.83-.25,2.55.01,2.99Z"/>
			<path class="cls-1" d="M196.01,204.51l.67,3.01c1.31-.1,3.29,1.12,4.32.98-.51-2.89-1.89-4.34-4.99-3.99Z"/>
		</g>
	</a>

</svg>